<?xml version="1.0" encoding="utf-8"?>
<!-- Generator: Adobe Illustrator 19.1.0, SVG Export Plug-In . SVG Version: 6.00 Build 0)  -->
<svg version="1.1" id="Layer_1" xmlns="http://www.w3.org/2000/svg" xmlns:xlink="http://www.w3.org/1999/xlink" x="0px" y="0px"
	 viewBox="-299 1251 400 500" style="enable-background:new -299 1251 400 500;" xml:space="preserve">
<style type="text/css">
	.st0{fill:#F1F1F1;}
</style>
<path class="st0" d="M68.2,1253h-334.5c-17,0-30.8,13.8-30.8,30.8v334.5c0,17,13.8,30.8,30.8,30.8h170.1h78.6h85.8
	c17,0,30.8-13.8,30.8-30.8v-334.5C99,1266.8,85.2,1253,68.2,1253z M-76,1629v-146h-49v-36h49v-52.2c0-20.6,5.9-37.4,17.2-48.6
	c10.9-10.7,26.8-16.4,45.9-16.4c13.4,0,24.9,0.7,33.9,1.3v31.7l-20.5,0c-38.1,0-38.5,28.3-38.5,37.6v46.6h55.2l-4.7,36H-38v146H-76z
	 M79,1618.2c0,5.9-4.8,10.8-10.8,10.8H-18v-126h48.1l9.9-76h-58v-26.6c0-6.9,1.1-11.2,3.1-13.5c2.3-2.7,7.7-4.1,15.6-4.1l40.4,0
	v-69.5l-8.9-1.2c-4.5-0.6-22.7-2.3-45.2-2.3c-24.4,0-45.1,7.7-59.7,22.2c-15.2,15-23.2,36.7-23.2,62.8v32.2h-49v76h49v126h-170.2
	c-5.9,0-10.8-4.8-10.8-10.8v-334.5c0-5.9,4.8-10.8,10.8-10.8H68.2c5.9,0,10.8,4.8,10.8,10.8V1618.2z"/>
</svg>
