<?xml version="1.0" encoding="utf-8"?>
<!-- Generator: Adobe Illustrator 19.1.0, SVG Export Plug-In . SVG Version: 6.00 Build 0)  -->
<svg version="1.1" id="Layer_1" xmlns="http://www.w3.org/2000/svg" xmlns:xlink="http://www.w3.org/1999/xlink" x="0px" y="0px"
	 viewBox="-449 1438 100 125" style="enable-background:new -449 1438 100 125;" xml:space="preserve">
<path d="M-370.8,1496.2c2.9-2.4,4.8-6.2,4.8-10.2c0-6.9-5.6-13-12-13s-12,6.1-12,13c0,4,1.9,7.8,4.8,10.2c-1.3,0.5-2.5,1-3.7,1.7
	c-3.8-4.5-8.8-8-14.6-9.7c4.4-3.1,7.5-8.4,7.5-14.2c0-9.1-7.5-17-16-17s-16,7.9-16,17c0,5.8,3.1,11.1,7.5,14.2
	c-12.4,3.7-21.5,15.2-21.5,28.8c0,1.1,0.9,2,2,2h82c1.1,0,2-0.9,2-2C-356,1507.4-362.2,1499.2-370.8,1496.2z M-386,1486
	c0-4.2,3.5-9,8-9s8,4.8,8,9s-3.5,9-8,9S-386,1490.2-386,1486z M-424,1474c0-6.1,5.1-13,12-13s12,6.9,12,13s-5.1,13-12,13
	S-424,1480.1-424,1474z M-437.9,1515c1-13.4,12.3-24,25.9-24s24.9,10.6,25.9,24H-437.9z M-382.1,1515c-0.3-5-1.9-9.8-4.5-13.8
	c2.6-1.4,5.5-2.2,8.6-2.2c9.2,0,16.9,7,17.9,16H-382.1z"/>
</svg>
