<svg xmlns="http://www.w3.org/2000/svg" xmlns:xlink="http://www.w3.org/1999/xlink" version="1.1" x="0px" y="0px" viewBox="0 0 100 125" enable-background="new 0 0 100 100" xml:space="preserve"><g><rect x="24.869" y="27.574" width="48.026" height="11.594"/><path d="M94.53,21.865c0-0.945-0.765-1.71-1.711-1.71h-14.37H19.026c-0.001,0-0.004,0-0.005,0c-0.473,0-0.9,0.191-1.21,0.501   s-0.501,0.737-0.501,1.21c0,0.002,0,0.003,0,0.006v6.265H6.931c-0.467,0-0.915,0.191-1.237,0.529   C5.37,29.003,5.2,29.458,5.222,29.926c0.01,0.216,0.997,21.855,0.003,35.386c-0.471,6.421,0.523,10.871,2.955,13.232   c0.88,0.854,1.787,1.271,2.535,1.479c0.152,0.078,0.312,0.142,0.489,0.172c0.083,0.015,0.358,0.056,0.77,0.056   c0.168,0,0.367-0.011,0.577-0.03h65.898h0.001c0.174,0,4.014-0.021,7.894-1.785c3.735-1.697,8.188-5.331,8.188-12.997V38.805   c0-0.002,0-0.004,0-0.006V21.865z M91.109,33.651L81.035,23.576h10.074V33.651z M79.875,26.447l9.953,9.954h-9.953V26.447z    M8.637,65.562c0.839-11.433,0.29-28.487,0.077-34.006h8.597v4.702h-3.904c-0.417,0-0.817,0.167-1.112,0.462   c-0.294,0.296-0.458,0.697-0.456,1.115c0.001,0.23,0.12,23.118-0.564,30.741c-0.078,0.863,0.559,1.625,1.421,1.701   c0.048,0.005,0.095,0.007,0.142,0.007c0.803,0,1.486-0.612,1.56-1.428c0.599-6.675,0.598-24.083,0.583-29.462h2.33v26.042   c0,6.496-1.586,9.249-2.916,10.416c-0.762,0.668-1.524,0.882-2.034,0.946h-0.295c-0.009,0-0.017,0.002-0.027,0.002   c-0.097-0.002-0.812-0.019-1.562-0.798C9.573,75.062,8.131,72.452,8.637,65.562z M78.449,76.799H18.06   c1.765-2.533,2.672-6.326,2.672-11.362V23.576h56.293v14.25c0,0.788,0.637,1.425,1.425,1.425h12.66v26.186   C91.109,76.622,78.964,76.797,78.449,76.799z"/><rect x="24.87" y="43.302" width="28.501" height="2.851"/><rect x="24.87" y="49.195" width="28.501" height="2.852"/><rect x="24.87" y="55.177" width="28.501" height="2.851"/><rect x="24.87" y="61.259" width="28.501" height="2.851"/><rect x="58.22" y="43.302" width="28.502" height="2.851"/><rect x="58.22" y="49.195" width="28.502" height="2.852"/><rect x="58.22" y="55.177" width="28.502" height="2.851"/><rect x="58.22" y="61.259" width="28.502" height="2.851"/><rect x="24.87" y="67.291" width="28.501" height="2.851"/><rect x="58.22" y="67.291" width="20.229" height="2.851"/></g><text x="0" y="115" fill="#000000" font-size="5px" font-weight="bold" font-family="'Helvetica Neue', Helvetica, Arial-Unicode, Arial, Sans-serif">Created by Jon Testa</text><text x="0" y="120" fill="#000000" font-size="5px" font-weight="bold" font-family="'Helvetica Neue', Helvetica, Arial-Unicode, Arial, Sans-serif">from the Noun Project</text></svg>