<?xml version="1.0" encoding="utf-8"?>
<!-- Generator: Adobe Illustrator 19.1.0, SVG Export Plug-In . SVG Version: 6.00 Build 0)  -->
<svg version="1.1" id="Layer_1" xmlns="http://www.w3.org/2000/svg" xmlns:xlink="http://www.w3.org/1999/xlink" x="0px" y="0px"
	 viewBox="-449 1438 100 125" style="enable-background:new -449 1438 100 125;" xml:space="preserve">
<g>
	<path d="M-397,1499.6c0,2.5,0.4,4.9,1.1,7.1c3,9.8,12.2,16.9,22.9,16.9c4.8,0,9.3-1.4,13-3.8c6.6-4.3,11-11.7,11-20.2
		c0-12.7-9.9-23.1-22.4-23.9c2.6-9.4,8-17.5,15.3-23.2c-22.7,1-40.9,20.5-40.9,44.3c0,0.5,0,1.1,0,1.6
		C-397,1498.8-397,1499.2-397,1499.6z"/>
	<path d="M-449,1499.6c0,2.5,0.4,4.9,1.1,7.1c3,9.8,12.2,16.9,22.9,16.9c4.8,0,9.3-1.4,13-3.8c6.6-4.3,11-11.7,11-20.2
		c0-12.7-9.9-23.1-22.4-23.9c2.6-9.4,8-17.5,15.3-23.2c-22.7,1-40.9,20.5-40.9,44.3c0,0.5,0,1.1,0,1.6
		C-449,1498.8-449,1499.2-449,1499.6z"/>
</g>
</svg>
