<?xml version="1.0" encoding="utf-8"?>
<!-- Generator: Adobe Illustrator 19.1.0, SVG Export Plug-In . SVG Version: 6.00 Build 0)  -->
<svg version="1.1" id="Layer_1" xmlns="http://www.w3.org/2000/svg" xmlns:xlink="http://www.w3.org/1999/xlink" x="0px" y="0px"
	 viewBox="-451 1441 96 120" style="enable-background:new -451 1441 96 120;" xml:space="preserve">
<path d="M-367.8,1489l-8.4-27.9c-0.4-1.3-1.5-2.1-2.9-2.1h-15.5c-1.2-3.5-4.6-6-8.5-6c-3.9,0-7.2,2.5-8.5,6H-427
	c-1.3,0-2.5,0.9-2.9,2.1l-8.4,27.9h-3.8v3c0,8.3,6.7,15,15,15s15-6.7,15-15v-3h-3.8l-7.2-24h11.5c0.9,2.6,2.9,4.6,5.5,5.5v39.5h-15
	c-5,0-9,4-9,9v6h54v-6c0-5-4-9-9-9h-15v-39.5c2.5-0.9,4.6-2.9,5.5-5.5h11.5l-7.2,24h-3.8v3c0,8.3,6.7,15,15,15s15-6.7,15-15v-3
	L-367.8,1489L-367.8,1489z M-427,1501c-3.9,0-7.2-2.5-8.5-6h17C-419.8,1498.5-423.1,1501-427,1501z M-422,1489h-9.9l5-16.6
	L-422,1489z M-385,1516c1.7,0,3,1.3,3,3h-42c0-1.7,1.3-3,3-3H-385z M-403,1465c-1.7,0-3-1.3-3-3s1.3-3,3-3s3,1.3,3,3
	S-401.3,1465-403,1465z M-379,1472.4l5,16.6h-9.9L-379,1472.4z M-379,1501c-3.9,0-7.2-2.5-8.5-6h17
	C-371.8,1498.5-375.1,1501-379,1501z"/>
</svg>
