<?xml version="1.0" encoding="utf-8"?>
<!-- Generator: Adobe Illustrator 19.1.0, SVG Export Plug-In . SVG Version: 6.00 Build 0)  -->
<svg version="1.1" id="Layer_1" xmlns="http://www.w3.org/2000/svg" xmlns:xlink="http://www.w3.org/1999/xlink" x="0px" y="0px"
	 viewBox="0 0 1000 3000" style="enable-background:new 0 0 1000 3000;" xml:space="preserve">
<style type="text/css">
	.st0{fill:#5F5B5B;}
	.st1{fill:#FFFFFF;}
	.st2{fill:none;}
	.st3{font-family:'Baskerville-Bold';}
	.st4{font-size:16px;}
</style>
<g>
	<g>
		<rect x="238.1" y="877.6" class="st0" width="161.9" height="167"/>
		<path class="st1" d="M282.8,895v89.4h72.6V923h-27.9v-27.9L282.8,895L282.8,895z M333,895v22.3h22.3L333,895z M293.9,917.4h22.3
			v5.6h-22.3V917.4z M293.9,934.1h50.3v5.6h-50.3V934.1z M293.9,950.9H333v5.6h-39.1V950.9z M293.9,967.6h50.3v5.6h-50.3V967.6z"/>
	</g>
	<rect x="263.9" y="990.7" class="st2" width="122.3" height="36.5"/>
	<rect x="268" y="994.7" class="st2" width="98" height="40.8"/>
	<text transform="matrix(1 0 0 1 282.5781 1005.437)"><tspan x="0" y="0" class="st1 st3 st4">Welcome</tspan><tspan x="9" y="19.2" class="st1 st3 st4">Packet</tspan></text>
</g>
</svg>
